<?xml version="1.0" encoding="UTF-8"?>
<!DOCTYPE svg PUBLIC "-//W3C//DTD SVG 1.1//EN" "http://www.w3.org/Graphics/SVG/1.1/DTD/svg11.dtd">
<!-- Creator: CorelDRAW 2018 (64-Bit) -->
<svg xmlns="http://www.w3.org/2000/svg" xml:space="preserve" width="4996px" height="1521px" version="1.1" style="shape-rendering:geometricPrecision; text-rendering:geometricPrecision; image-rendering:optimizeQuality; fill-rule:evenodd; clip-rule:evenodd"
viewBox="0 0 1420.48 432.42"
 xmlns:xlink="http://www.w3.org/1999/xlink">
 <defs>
  <style type="text/css">
   <![CDATA[
    .fil1 {fill:#FCCAA4}
    .fil0 {fill:#C8C5E2}
    .fil2 {fill:#00AFEF}
    .fil3 {fill:#C8E0CE}
   ]]>
  </style>
    <mask id="id0">
  <linearGradient id="id1" gradientUnits="userSpaceOnUse" x1="745.19" y1="-95.96" x2="742.82" y2="48.57">
   <stop offset="0" style="stop-opacity:1; stop-color:white"/>
   <stop offset="1" style="stop-opacity:0; stop-color:white"/>
  </linearGradient>
     <rect style="fill:url(#id1)" x="504.17" y="-0.3" width="482.05" height="154.62"/>
    </mask>
    <mask id="id2">
  <linearGradient id="id3" gradientUnits="userSpaceOnUse" x1="1675.15" y1="-58.17" x2="1248.33" y2="315.3">
   <stop offset="0" style="stop-opacity:1; stop-color:white"/>
   <stop offset="1" style="stop-opacity:0; stop-color:white"/>
  </linearGradient>
     <rect style="fill:url(#id3)" x="966.25" y="-0.3" width="454.53" height="419.99"/>
    </mask>
    <mask id="id4">
  <linearGradient id="id5" gradientUnits="userSpaceOnUse" x1="-37.56" y1="791.18" x2="111.92" y2="328.85">
   <stop offset="0" style="stop-opacity:1; stop-color:white"/>
   <stop offset="1" style="stop-opacity:0; stop-color:white"/>
  </linearGradient>
     <rect style="fill:url(#id5)" x="-0.3" y="283.72" width="215.91" height="149"/>
    </mask>
    <mask id="id6">
  <linearGradient id="id7" gradientUnits="userSpaceOnUse" x1="268.66" y1="-84.11" x2="268.66" y2="113.73">
   <stop offset="0" style="stop-opacity:1; stop-color:white"/>
   <stop offset="1" style="stop-opacity:0; stop-color:white"/>
  </linearGradient>
     <rect style="fill:url(#id7)" x="46.6" y="-0.3" width="444.12" height="114.33"/>
    </mask>
 </defs>
 <g id="Layer_x0020_1">
  <metadata id="CorelCorpID_0Corel-Layer"/>
  <g id="_2623729466672">
   <path class="fil0" style="mask:url(#id0)" d="M985.92 0c-39.23,90.43 -132.23,154.02 -240.73,154.02 -108.49,0 -201.49,-63.59 -240.72,-154.02l481.45 0z"/>
   <path class="fil1" style="mask:url(#id2)" d="M1420.48 419.39c-250.7,0 -453.93,-146.92 -453.93,-328.16 0,-31.66 6.22,-62.27 17.79,-91.23l436.14 0 0 419.39z"/>
   <path class="fil2" style="mask:url(#id4)" d="M0 293.83c33.43,-11.7 68,-13.34 100.78,-2.74 58.37,18.87 98.65,72.49 114.53,141.33l-215.31 0 0 -138.59z"/>
   <path class="fil3" style="mask:url(#id6)" d="M490.42 0c-39.15,67.2 -123.72,113.73 -221.76,113.73 -98.05,0 -182.62,-46.53 -221.76,-113.73l443.52 0z"/>
  </g>
 </g>
</svg>
