<?xml version="1.0" encoding="UTF-8"?>
<!DOCTYPE svg PUBLIC "-//W3C//DTD SVG 1.1//EN" "http://www.w3.org/Graphics/SVG/1.1/DTD/svg11.dtd">
<!-- Creator: CorelDRAW 2018 (64-Bit) -->
<svg xmlns="http://www.w3.org/2000/svg" xml:space="preserve" width="282px" height="180px" version="1.1" style="shape-rendering:geometricPrecision; text-rendering:geometricPrecision; image-rendering:optimizeQuality; fill-rule:evenodd; clip-rule:evenodd"
viewBox="0 0 282 180.09"
 xmlns:xlink="http://www.w3.org/1999/xlink">
 <defs>
  <style type="text/css">
   <![CDATA[
    .fil0 {fill:none}
    .fil5 {fill:#FEFEFE}
    .fil4 {fill:#FEFEFE}
    .fil3 {fill:#E6E7E8}
    .fil2 {fill:#D2D3D5}
    .fil1 {fill:#D2D3D5}
   ]]>
  </style>
 </defs>
 <g id="Layer_x0020_1">
  <metadata id="CorelCorpID_0Corel-Layer"/>
  <polygon class="fil0" points="0,0 282,0 282,180.09 0,180.09 "/>
  <path class="fil1" d="M173 71.52l-64 0c0,-4.55 3.87,-8.42 8.42,-8.42l47.16 0c4.55,0 8.42,3.87 8.42,8.42z"/>
  <polygon class="fil2" points="132.58,100.15 149.42,100.15 149.42,111.94 132.58,111.94 "/>
  <path class="fil3" d="M110.68 116.99l18.53 0c1.85,0 3.71,-1.01 4.38,-2.86l3.7 -9.94c0.51,-1.35 2.03,-2.36 3.71,-2.36 1.68,0 3.2,1.01 3.71,2.36l3.7 9.94c0.67,1.68 2.53,2.86 4.38,2.86l18.53 0c3.7,0 6.73,-3.03 6.73,-6.74l0 -33.68c0,-3.7 -3.03,-6.74 -6.73,-6.74l-60.64 0c-3.7,0 -6.73,3.04 -6.73,6.74l0 33.68c0,3.71 3.03,6.74 6.73,6.74z"/>
  <circle class="fil4" cx="159.53" cy="93.41" r="10.11"/>
  <circle class="fil5" cx="120.79" cy="93.41" r="10.11"/>
  <circle class="fil4" cx="159.53" cy="93.41" r="8.42"/>
  <circle class="fil5" cx="120.79" cy="93.41" r="8.42"/>
  <path class="fil3" d="M157.84 90.04c-0.93,0 -1.68,0.76 -1.68,1.69 0,0.93 0.75,1.68 1.68,1.68 0.93,0 1.69,-0.75 1.69,-1.68 0,-0.93 -0.76,-1.69 -1.69,-1.69z"/>
  <path class="fil3" d="M162.05 95.1c-0.46,0 -0.84,0.37 -0.84,0.84 0,0.46 0.38,0.84 0.84,0.84 0.47,0 0.85,-0.38 0.85,-0.84 0,-0.47 -0.38,-0.84 -0.85,-0.84z"/>
  <path class="fil3" d="M119.11 90.04c-0.93,0 -1.69,0.76 -1.69,1.69 0,0.93 0.76,1.68 1.69,1.68 0.92,0 1.68,-0.75 1.68,-1.68 0,-0.93 -0.76,-1.69 -1.68,-1.69z"/>
  <path class="fil3" d="M123.32 95.1c-0.47,0 -0.85,0.37 -0.85,0.84 0,0.46 0.38,0.84 0.85,0.84 0.46,0 0.84,-0.38 0.84,-0.84 0,-0.47 -0.38,-0.84 -0.84,-0.84z"/>
 </g>
</svg>
